<svg xmlns="http://www.w3.org/2000/svg" width="1536" height="1024" viewBox="0 0 1536 1024">
<rect width="1536" height="1024" fill="#FAF8F3"/>
<g transform="translate(566 152) scale(4)">
<path d="M 16 0 L 84 0 C 94 0 100 6 100 16 L 100 66 C 100 74 97 80 90 80 L 78 80 L 78 90 L 90 90 C 97 90 100 96 100 105 L 100 164 C 100 174 94 180 84 180 L 16 180 C 6 180 0 174 0 164 L 0 105 C 0 96 3 90 10 90 L 22 90 L 22 80 L 10 80 C 3 80 0 74 0 66 L 0 16 C 0 6 6 0 16 0 Z" fill="#A63D2C"/>
<path d="M 18 18 L 82 18 L 82 54 L 60 54 L 66 112 L 82 112 L 82 162 L 18 162 L 18 112 L 44 112 L 38 54 L 18 54 Z" fill="#FAF8F3"/>
</g></svg>
